<svg width="129" height="36" viewBox="0 0 129 36" fill="none" xmlns="http://www.w3.org/2000/svg">
<g clip-path="url(#clip0_52_2593)">
<path fill-rule="evenodd" clip-rule="evenodd" d="M66.7192 7.31933C66.7192 8.76477 65.536 9.92917 64.0672 9.92917C62.5983 9.92917 61.4151 8.76477 61.4151 7.31933C61.4151 5.87388 62.5576 4.70947 64.0672 4.70947C65.5768 4.74962 66.7192 5.91401 66.7192 7.31933ZM55.7846 12.5791C55.7846 12.8201 55.7846 13.2216 55.7846 13.2216C55.7846 13.2216 54.5198 11.6154 51.8269 11.6154C47.3796 11.6154 43.9116 14.9482 43.9116 19.5655C43.9116 24.1428 47.3389 27.5155 51.8269 27.5155C54.5606 27.5155 55.7846 25.8694 55.7846 25.8694V26.552C55.7846 26.8731 56.0294 27.1141 56.3558 27.1141H59.6607V12.0171C59.6607 12.0171 56.6414 12.0171 56.3558 12.0171C56.0294 12.0171 55.7846 12.2981 55.7846 12.5791ZM55.7846 22.2558C55.1726 23.139 53.9486 23.9019 52.4798 23.9019C49.8685 23.9019 47.8692 22.2959 47.8692 19.5655C47.8692 16.8353 49.8685 15.2293 52.4798 15.2293C53.9077 15.2293 55.2134 16.0322 55.7846 16.8754V22.2558ZM62.1087 12.0171H66.0256V27.1141H62.1087V12.0171ZM120.617 11.6154C117.924 11.6154 116.659 13.2216 116.659 13.2216V4.74962H112.742V27.1141C112.742 27.1141 115.762 27.1141 116.047 27.1141C116.373 27.1141 116.618 26.833 116.618 26.552V25.8694C116.618 25.8694 117.883 27.5155 120.577 27.5155C125.023 27.5155 128.492 24.1428 128.492 19.5655C128.492 14.9883 125.023 11.6154 120.617 11.6154ZM119.965 23.8617C118.455 23.8617 117.271 23.0988 116.659 22.2154V16.8353C117.271 16.0322 118.577 15.189 119.965 15.189C122.576 15.189 124.575 16.7951 124.575 19.5254C124.575 22.2558 122.576 23.8617 119.965 23.8617ZM110.703 18.1602V27.1542H106.786V18.6019C106.786 16.1125 105.969 15.1087 103.766 15.1087C102.583 15.1087 101.359 15.711 100.584 16.5943V27.1141H96.6671V12.0171H99.7679C100.094 12.0171 100.339 12.2981 100.339 12.5791V13.2216C101.481 12.0572 102.991 11.6154 104.501 11.6154C106.215 11.6154 107.642 12.0974 108.785 13.0609C110.172 14.1851 110.703 15.6306 110.703 18.1602ZM87.1605 11.6154C84.4676 11.6154 83.2028 13.2216 83.2028 13.2216V4.74962H79.2859V27.1141C79.2859 27.1141 82.305 27.1141 82.5906 27.1141C82.9172 27.1141 83.1619 26.833 83.1619 26.552V25.8694C83.1619 25.8694 84.4267 27.5155 87.1196 27.5155C91.5669 27.5155 95.0349 24.1428 95.0349 19.5655C95.0758 14.9883 91.6077 11.6154 87.1605 11.6154ZM86.5076 23.8617C84.998 23.8617 83.8148 23.0988 83.2028 22.2154V16.8353C83.8148 16.0322 85.1204 15.189 86.5076 15.189C89.1189 15.189 91.1181 16.7951 91.1181 19.5254C91.1181 22.2558 89.1189 23.8617 86.5076 23.8617ZM75.8994 11.6154C77.0826 11.6154 77.6946 11.8163 77.6946 11.8163V15.3898C77.6946 15.3898 74.4306 14.3057 72.3905 16.5943V27.1542H68.4737V12.0171C68.4737 12.0171 71.493 12.0171 71.7785 12.0171C72.1049 12.0171 72.3496 12.2981 72.3496 12.5791V13.2216C73.0841 12.3785 74.6753 11.6154 75.8994 11.6154ZM33.4138 25.1796C33.2365 24.7595 33.0593 24.3044 32.882 23.9194C32.5982 23.2893 32.3147 22.6942 32.0665 22.1343L32.0311 22.0991C29.5847 16.8485 26.9611 11.528 24.1956 6.27744L24.0892 6.06742C23.8056 5.54236 23.522 4.9823 23.2384 4.42224C22.8838 3.79216 22.5293 3.12709 21.962 2.49703C20.8275 1.09687 19.1965 0.326782 17.4593 0.326782C15.6865 0.326782 14.0912 1.09687 12.9211 2.42702C12.3894 3.05709 11.9993 3.72216 11.6448 4.35223C11.3612 4.91228 11.0775 5.47235 10.7939 5.99741L10.6875 6.20744C7.95751 11.458 5.29842 16.7786 2.85207 22.0292L2.81662 22.0991C2.56843 22.6592 2.2848 23.2543 2.00117 23.8845C1.82389 24.2694 1.64663 24.6895 1.46935 25.1446C1.00844 26.4397 0.866623 27.6648 1.0439 28.9249C1.43389 31.5503 3.20662 33.7555 5.65297 34.7356C6.57478 35.1207 7.53206 35.2956 8.52478 35.2956C8.80841 35.2956 9.16296 35.2607 9.44659 35.2256C10.6166 35.0856 11.822 34.7006 12.992 34.0355C14.4457 33.2303 15.8283 32.0752 17.3884 30.3952C18.9484 32.0752 20.3666 33.2303 21.7847 34.0355C22.9547 34.7006 24.1602 35.0856 25.3301 35.2256C25.6138 35.2607 25.9684 35.2956 26.2519 35.2956C27.2447 35.2956 28.2374 35.1207 29.1238 34.7356C31.6056 33.7555 33.3428 31.5153 33.7329 28.9249C34.0164 27.6998 33.8746 26.4746 33.4138 25.1796ZM17.4567 26.6322C15.6177 24.322 14.4257 22.1477 14.017 20.3129C13.8467 19.5316 13.8127 18.852 13.9148 18.2405C13.983 17.6969 14.1872 17.2214 14.4598 16.8137C15.1068 15.8964 16.1967 15.3188 17.4567 15.3188C18.7168 15.3188 19.8407 15.8624 20.4538 16.8137C20.7262 17.2214 20.9304 17.6969 20.9986 18.2405C21.1008 18.852 21.0668 19.5655 20.8965 20.3129C20.4878 22.1135 19.2958 24.2879 17.4567 26.6322ZM31.279 28.3912C31.0363 30.1698 29.8232 31.7092 28.1247 32.3933C27.2927 32.7352 26.3914 32.8378 25.4902 32.7352C24.6237 32.6328 23.7571 32.359 22.8559 31.846C21.6078 31.1618 20.36 30.1015 18.9042 28.528C21.1919 25.7574 22.5784 23.2261 23.0984 20.9687C23.341 19.9083 23.3758 18.9506 23.2718 18.0612C23.1332 17.2061 22.8211 16.4194 22.3358 15.7353C21.2614 14.196 19.4588 13.3067 17.4484 13.3067C15.4378 13.3067 13.6353 14.2303 12.5608 15.7353C12.0755 16.4194 11.7636 17.2061 11.6248 18.0612C11.4862 18.9506 11.5209 19.9426 11.7982 20.9687C12.3182 23.2261 13.7393 25.7916 15.9925 28.5622C14.5713 30.1357 13.2887 31.1961 12.0408 31.8801C11.1395 32.3933 10.273 32.6669 9.40643 32.7696C8.4705 32.872 7.56926 32.7352 6.77201 32.4275C5.0735 31.7433 3.86029 30.2042 3.61764 28.4254C3.51365 27.5703 3.58297 26.7152 3.92961 25.7574C4.0336 25.4153 4.20691 25.0734 4.38023 24.6628C4.62288 24.1156 4.90018 23.5341 5.17749 22.9526L5.21215 22.8843C7.60393 17.7877 10.169 12.5884 12.8381 7.52607L12.9421 7.32084C13.2194 6.80776 13.4967 6.26048 13.774 5.7474C14.0514 5.20012 14.3633 4.68703 14.7445 4.24237C15.4725 3.42144 16.4431 2.97678 17.5177 2.97678C18.5922 2.97678 19.5628 3.42144 20.2908 4.24237C20.672 4.68703 20.9839 5.20012 21.2614 5.7474C21.5386 6.26048 21.8159 6.80776 22.0931 7.32084L22.1972 7.52607C24.8316 12.6227 27.3967 17.8218 29.7884 22.9184V22.9526C30.0657 23.4999 30.3084 24.1156 30.5858 24.6628C30.7591 25.0734 30.9323 25.4153 31.0363 25.7574C31.3138 26.6467 31.4176 27.5018 31.279 28.3912Z" fill="#73A4A0"/>
</g>
<defs>
<clipPath id="clip0_52_2593">
<rect width="128.55" height="36" fill="white" transform="translate(0.0499878)"/>
</clipPath>
</defs>
</svg>
