<svg width="196" height="36" viewBox="0 0 196 36" fill="none" xmlns="http://www.w3.org/2000/svg">
<path fill-rule="evenodd" clip-rule="evenodd" d="M59.0098 12.7403V16.425L67.8104 16.4212C67.5405 18.4534 66.8556 19.9414 65.8143 20.9829C64.5309 22.2672 62.528 23.6808 59.0098 23.6808C53.5874 23.6808 49.3446 19.3072 49.3446 13.8799C49.3446 8.4527 53.5874 4.07886 59.0098 4.07886C61.9364 4.07886 64.0725 5.23008 65.6501 6.7102L68.2479 4.11019C66.0495 2.00745 63.1229 0.394165 59.0133 0.394165C51.5879 0.394165 45.3422 6.44785 45.3422 13.8799C45.3422 21.3119 51.5879 27.3655 59.0133 27.3655C63.0209 27.3655 66.0461 26.0499 68.4123 23.5831C70.8459 21.1474 71.6017 17.7291 71.6017 14.9645C71.6017 14.1422 71.5394 13.3827 71.4184 12.7403H59.0098ZM133.243 26.8369V1.38476H129.526V26.8369H133.243ZM81.7877 27.3694C86.584 27.3694 90.493 23.6847 90.493 18.6843C90.493 13.6487 86.584 9.99931 81.7877 9.99931C76.9896 9.99931 73.0806 13.6487 73.0806 18.6843C73.0806 23.6847 76.9896 27.3694 81.7877 27.3694ZM81.7877 13.4216C84.4167 13.4216 86.6825 15.5596 86.6825 18.6843C86.6825 21.7739 84.4167 23.9471 81.7877 23.9471C79.1585 23.9471 76.8927 21.7778 76.8927 18.6843C76.8927 15.5596 79.1585 13.4216 81.7877 13.4216ZM100.57 27.3694C105.366 27.3694 109.275 23.6847 109.275 18.6843C109.275 13.6487 105.366 9.99931 100.57 9.99931C95.7719 9.99931 91.8629 13.6526 91.8629 18.6843C91.8629 23.6847 95.7719 27.3694 100.57 27.3694ZM100.57 13.4216C103.199 13.4216 105.465 15.5596 105.465 18.6843C105.465 21.7739 103.199 23.9471 100.57 23.9471C97.9408 23.9471 95.675 21.7778 95.675 18.6843C95.675 15.5596 97.9408 13.4216 100.57 13.4216ZM127.276 10.5279V26.1163C127.276 32.5303 123.495 35.15 119.027 35.15C114.82 35.15 112.288 32.3345 111.334 30.0322L114.651 28.6499C115.243 30.0635 116.69 31.7315 119.022 31.7315C121.883 31.7315 123.656 29.9655 123.656 26.6411V25.392H123.522C122.67 26.4453 121.026 27.3655 118.953 27.3655C114.613 27.3655 110.636 23.5829 110.636 18.7157C110.636 13.8133 114.613 9.99931 118.953 9.99931C121.021 9.99931 122.666 10.9194 123.522 11.9415H123.656V10.5279H127.276ZM123.925 18.7157C123.925 15.6575 121.886 13.4216 119.292 13.4216C116.663 13.4216 114.461 15.6575 114.461 18.7157C114.461 21.7427 116.663 23.9471 119.292 23.9471C121.886 23.9471 123.925 21.7427 123.925 18.7157ZM147.729 21.5428L150.687 23.5165C149.732 24.93 147.431 27.3655 143.455 27.3655C138.525 27.3655 134.843 23.5517 134.843 18.6806C134.843 13.5157 138.557 9.99549 143.029 9.99549C147.533 9.99549 149.735 13.5823 150.456 15.5206L150.851 16.5075L139.248 21.3158C140.137 23.0583 141.518 23.9472 143.455 23.9472C145.396 23.9472 146.743 22.9918 147.729 21.5428ZM138.622 18.4181L146.378 15.1955C145.952 14.1108 144.669 13.3551 143.157 13.3551C141.222 13.3551 138.525 15.0663 138.622 18.4181Z" fill="#73A4A0"/>
</svg>
