<svg width="196" height="36" viewBox="0 0 196 36" fill="none" xmlns="http://www.w3.org/2000/svg">
<path d="M83.2225 13.5862C81.5348 13.5862 80.7 14.9142 80.317 15.7709C80.1029 16.2492 80.0431 16.6274 79.8695 16.6274C79.6249 16.6274 79.8001 16.2986 79.6 15.5697C79.3366 14.6106 78.543 13.5862 76.8565 13.5862C75.0835 13.5862 74.3243 15.0842 73.9643 15.9074C73.7182 16.4701 73.7179 16.6274 73.5287 16.6274C73.2544 16.6274 73.4816 16.1803 73.6049 15.6548C73.8481 14.6202 73.6632 13.8294 73.6632 13.8294H70.8527V24.398H74.689C74.689 24.398 74.689 19.9812 74.689 19.1397C74.689 18.1025 75.1229 16.7865 75.8665 16.7865C76.7257 16.7865 76.8978 17.4463 76.8978 18.6683C76.8978 19.7761 76.8978 24.4003 76.8978 24.4003H80.7496C80.7496 24.4003 80.7496 19.9566 80.7496 19.1397C80.7496 18.2165 81.1263 16.7865 81.9327 16.7865C82.8039 16.7865 82.9581 17.7135 82.9581 18.6683C82.9581 19.6231 82.9581 24.398 82.9581 24.398H86.7406C86.7406 24.398 86.7406 20.2105 86.7406 18.1831C86.7406 15.425 85.7684 13.5862 83.2225 13.5862Z" fill="#73A4A0"/>
<path d="M148.341 13.5862C146.653 13.5862 145.818 14.9142 145.435 15.7709C145.221 16.2492 145.161 16.6274 144.987 16.6274C144.743 16.6274 144.907 16.2098 144.719 15.5697C144.438 14.6157 143.738 13.5862 141.975 13.5862C140.202 13.5862 139.442 15.0842 139.082 15.9074C138.836 16.4701 138.836 16.6274 138.647 16.6274C138.373 16.6274 138.6 16.1803 138.723 15.6548C138.967 14.6202 138.782 13.8294 138.782 13.8294H135.971V24.398H139.807C139.807 24.398 139.807 19.9812 139.807 19.1397C139.807 18.1025 140.241 16.7865 140.985 16.7865C141.844 16.7865 142.016 17.4463 142.016 18.6683C142.016 19.7761 142.016 24.4003 142.016 24.4003H145.868C145.868 24.4003 145.868 19.9566 145.868 19.1397C145.868 18.2165 146.244 16.7865 147.051 16.7865C147.923 16.7865 148.076 17.7135 148.076 18.6683C148.076 19.6231 148.076 24.398 148.076 24.398H151.859C151.859 24.398 151.859 20.2105 151.859 18.1831C151.859 15.425 150.886 13.5862 148.341 13.5862Z" fill="#73A4A0"/>
<path d="M92.36 21.928C91.4426 22.1399 90.967 21.8573 90.967 21.2492C90.967 20.4163 91.8285 20.0827 93.0583 20.0827C93.6004 20.0827 94.1102 20.1296 94.1102 20.1296C94.1102 20.4861 93.3363 21.7027 92.36 21.928ZM93.2939 13.5886C90.3553 13.5886 88.2466 14.669 88.2466 14.669V17.8448C88.2466 17.8448 90.5753 16.506 92.4643 16.506C93.9721 16.506 94.1574 17.3192 94.0887 17.9941C94.0887 17.9941 93.6539 17.879 92.3268 17.879C89.2001 17.879 87.6216 19.3001 87.6216 21.5788C87.6216 23.7402 89.3955 24.6438 90.8901 24.6438C93.071 24.6438 94.0297 23.1782 94.3243 22.4829C94.5287 22.0005 94.566 21.6755 94.7497 21.6755C94.9589 21.6755 94.8884 21.9086 94.8783 22.3888C94.8606 23.2295 94.9002 23.865 95.0335 24.4004H97.925V19.1993C97.925 15.9519 96.776 13.5886 93.2939 13.5886Z" fill="#73A4A0"/>
<path d="M104.242 24.4005H108.079V10.6302H104.242V24.4005Z" fill="#73A4A0"/>
<path d="M112.304 19.1161C112.304 18.1659 113.187 17.3013 114.807 17.3013C116.573 17.3013 117.994 18.1516 118.312 18.3446V14.669C118.312 14.669 117.19 13.5886 114.432 13.5886C111.525 13.5886 109.103 15.2899 109.103 18.9516C109.103 22.6133 111.301 24.6438 114.424 24.6438C116.864 24.6438 118.318 23.3033 118.318 23.3033V19.812C117.858 20.0696 116.576 20.9593 114.825 20.9593C112.971 20.9593 112.304 20.1063 112.304 19.1161Z" fill="#73A4A0"/>
<path d="M126.083 13.5888C123.862 13.5888 123.018 15.6934 122.847 16.0588C122.676 16.4242 122.592 16.6344 122.452 16.6299C122.21 16.622 122.379 16.1813 122.473 15.896C122.652 15.3568 123.031 13.9424 123.031 12.204C123.031 11.0249 122.871 10.6302 122.871 10.6302H119.559V24.4005H123.396C123.396 24.4005 123.396 19.9988 123.396 19.1424C123.396 18.2858 123.738 16.7891 124.704 16.7891C125.505 16.7891 125.755 17.3823 125.755 18.5767C125.755 19.7709 125.755 24.4005 125.755 24.4005H129.592C129.592 24.4005 129.592 21.1796 129.592 18.8065C129.592 16.0936 129.142 13.5888 126.083 13.5888Z" fill="#73A4A0"/>
<path d="M130.836 13.844V24.4004H134.673V13.844C134.673 13.844 134.028 14.2212 132.758 14.2212C131.489 14.2212 130.836 13.844 130.836 13.844Z" fill="#73A4A0"/>
<path d="M132.743 10.5234C131.446 10.5234 130.396 11.2097 130.396 12.0562C130.396 12.9025 131.446 13.5888 132.743 13.5888C134.04 13.5888 135.092 12.9025 135.092 12.0562C135.092 11.2097 134.04 10.5234 132.743 10.5234Z" fill="#73A4A0"/>
<path d="M99.1644 13.844V24.4004H103.001V13.844C103.001 13.844 102.356 14.2212 101.087 14.2212C99.8172 14.2212 99.1644 13.844 99.1644 13.844Z" fill="#73A4A0"/>
<path d="M101.072 10.5234C99.775 10.5234 98.7236 11.2097 98.7236 12.0562C98.7236 12.9025 99.775 13.5888 101.072 13.5888C102.369 13.5888 103.42 12.9025 103.42 12.0562C103.42 11.2097 102.369 10.5234 101.072 10.5234Z" fill="#73A4A0"/>
<path d="M158.428 22.1293C157.549 22.1293 156.902 21.0135 156.902 19.4587C156.902 17.9489 157.566 16.7888 158.398 16.7888C159.466 16.7888 159.921 17.7678 159.921 19.4587C159.921 21.2177 159.502 22.1293 158.428 22.1293ZM159.482 13.5862C157.51 13.5862 156.606 15.065 156.213 15.9074C155.953 16.464 155.967 16.6274 155.777 16.6274C155.503 16.6274 155.73 16.1803 155.854 15.6548C156.096 14.6202 155.911 13.8294 155.911 13.8294H153.101V27.3167H156.938C156.938 27.3167 156.938 25.1098 156.938 23.0406C157.391 23.8107 158.232 24.6336 159.529 24.6336C162.303 24.6336 163.699 22.2865 163.699 19.1152C163.699 15.5208 162.027 13.5862 159.482 13.5862Z" fill="#73A4A0"/>
<path d="M57.3014 16.7786C57.5593 16.7478 57.8066 16.7464 58.0337 16.7786C58.1651 16.4771 58.1878 15.9575 58.0695 15.3915C57.8936 14.5504 57.6559 14.0413 57.1643 14.1205C56.6729 14.1997 56.6547 14.8092 56.8304 15.6504C56.9292 16.1236 57.1052 16.5279 57.3014 16.7786Z" fill="#73A4A0"/>
<path d="M53.0807 17.444C53.4323 17.5984 53.6485 17.7007 53.7331 17.6112C53.7875 17.5556 53.7713 17.4492 53.6873 17.312C53.5138 17.0286 53.1566 16.7413 52.7779 16.5799C52.0032 16.2465 51.0793 16.3574 50.3665 16.8694C50.1313 17.0419 49.9082 17.2807 49.9401 17.4257C49.9506 17.4726 49.9858 17.5079 50.0683 17.5195C50.2624 17.5417 50.9403 17.1989 51.7211 17.1511C52.2723 17.1174 52.729 17.2898 53.0807 17.444Z" fill="#73A4A0"/>
<path d="M52.3711 17.8478C51.9131 17.9201 51.6604 18.0712 51.4982 18.2116C51.3598 18.3324 51.2742 18.4662 51.275 18.5603C51.2753 18.6051 51.2947 18.6308 51.31 18.6439C51.3309 18.6622 51.3557 18.6724 51.3853 18.6724C51.4889 18.6724 51.7205 18.5794 51.7205 18.5794C52.358 18.3512 52.7784 18.3789 53.1952 18.4264C53.4255 18.4522 53.5342 18.4665 53.5847 18.3876C53.5997 18.3649 53.6178 18.3159 53.5717 18.2412C53.4644 18.0671 53.0019 17.7729 52.3711 17.8478Z" fill="#73A4A0"/>
<path d="M55.8753 19.3297C56.1862 19.4826 56.5285 19.4225 56.6401 19.1957C56.7515 18.969 56.5897 18.6613 56.2787 18.5083C55.9677 18.3557 55.6253 18.4155 55.5138 18.6423C55.4024 18.8692 55.5641 19.1768 55.8753 19.3297Z" fill="#73A4A0"/>
<path d="M57.8738 17.5824C57.6212 17.5781 57.4117 17.8556 57.4057 18.2019C57.3998 18.5485 57.5999 18.8328 57.8526 18.8371C58.1052 18.8415 58.3149 18.564 58.3206 18.2176C58.3266 17.8709 58.1264 17.5866 57.8738 17.5824Z" fill="#73A4A0"/>
<path d="M40.9044 23.8299C40.8415 23.7512 40.7383 23.7751 40.6383 23.7985C40.5684 23.8148 40.4893 23.8331 40.4026 23.8316C40.2167 23.828 40.0594 23.7488 39.971 23.6129C39.8559 23.4361 39.8626 23.1726 39.9897 22.871C40.0067 22.8302 40.0269 22.785 40.0489 22.7358C40.2515 22.2811 40.5907 21.5202 40.2099 20.7951C39.9233 20.2495 39.4559 19.9095 38.8939 19.8382C38.3544 19.7698 37.7989 19.9698 37.4447 20.3607C36.8857 20.9773 36.7983 21.8165 36.9064 22.1131C36.9461 22.2216 37.008 22.2516 37.0531 22.2578C37.1481 22.2705 37.2888 22.2013 37.3769 21.9643C37.3831 21.9473 37.3915 21.9208 37.402 21.8873C37.4414 21.762 37.5144 21.5287 37.6341 21.3417C37.7785 21.1162 38.0033 20.9609 38.2672 20.9044C38.5361 20.8468 38.8108 20.8981 39.0408 21.0488C39.4324 21.3048 39.5832 21.7846 39.416 22.2425C39.3296 22.4792 39.1892 22.9319 39.2202 23.304C39.2828 24.0568 39.7459 24.3592 40.1619 24.3914C40.5665 24.4065 40.8492 24.1796 40.9207 24.0135C40.9629 23.9153 40.9273 23.8556 40.9044 23.8299Z" fill="#73A4A0"/>
<path d="M44.7485 10.0023C46.0679 8.4777 47.6921 7.15228 49.1469 6.40804C49.1972 6.38219 49.2507 6.43692 49.2234 6.48625C49.1078 6.69546 48.8855 7.14348 48.815 7.48327C48.804 7.53623 48.8616 7.57605 48.9062 7.54561C49.8114 6.92863 51.386 6.2675 52.7671 6.18252C52.8264 6.17884 52.8551 6.25495 52.8079 6.29117C52.5979 6.45234 52.3682 6.67526 52.2003 6.90078C52.1717 6.93915 52.1987 6.99442 52.2465 6.99471C53.2163 7.00162 54.5834 7.341 55.4746 7.84082C55.5348 7.87456 55.4918 7.99131 55.4245 7.97586C54.0762 7.66695 51.8693 7.43248 49.5769 7.99162C47.5304 8.49085 45.9683 9.26149 44.8287 10.0902C44.7711 10.1323 44.7019 10.0562 44.7485 10.0023ZM51.3195 24.7735C51.3194 24.7735 51.3196 24.7738 51.3195 24.7735V24.7735ZM56.7602 25.4158C56.7994 25.3994 56.8264 25.3548 56.8217 25.3105C56.8163 25.2559 56.7676 25.2162 56.7131 25.2219C56.7131 25.2219 53.8975 25.6385 51.2377 24.665C51.5274 23.7233 52.2977 24.0633 53.4622 24.1573C55.561 24.2824 57.4419 23.9758 58.8321 23.5767C60.0368 23.2312 61.6189 22.5495 62.8478 21.5795C63.2623 22.4901 63.4087 23.492 63.4087 23.492C63.4087 23.492 63.7295 23.4347 63.9976 23.5996C64.251 23.7556 64.4368 24.0797 64.3098 24.9177C64.0514 26.4833 63.386 27.754 62.2677 28.9231C61.5868 29.6558 60.7602 30.293 59.8146 30.7563C59.3123 31.0201 58.7776 31.2484 58.2127 31.4327C53.9963 32.8098 49.6805 31.2959 48.2893 28.0449C48.1784 27.8004 48.0844 27.5447 48.0104 27.277C47.4175 25.1346 47.9208 22.5643 49.4941 20.9464C49.4939 20.9464 49.4942 20.9462 49.4941 20.9464C49.591 20.8434 49.6901 20.7211 49.6901 20.5685C49.6901 20.4408 49.6089 20.306 49.5386 20.2105C48.9881 19.4122 47.0814 18.0517 47.4641 15.4189C47.739 13.5274 49.3931 12.1954 50.9354 12.2743C51.0656 12.2811 51.1962 12.289 51.3263 12.2966C51.9946 12.3363 52.5776 12.4221 53.1279 12.4449C54.0487 12.4848 54.8768 12.3508 55.8575 11.5337C56.1883 11.258 56.4536 11.0191 56.9024 10.943C56.9496 10.935 57.0669 10.8928 57.3015 10.9039C57.5409 10.9167 57.7688 10.9825 57.9736 11.1188C58.76 11.642 58.8714 12.9091 58.9122 13.8362C58.9354 14.3653 58.9995 15.6455 59.0212 16.0131C59.0713 16.8534 59.2922 16.9719 59.7391 17.119C59.9904 17.2019 60.2237 17.2635 60.5676 17.36C61.6084 17.6522 62.2255 17.9486 62.6143 18.3295C62.8464 18.5673 62.9543 18.8203 62.9876 19.0614C63.1102 19.9567 62.2925 21.0627 60.1275 22.0677C57.7609 23.166 54.8899 23.4442 52.9062 23.2233C52.7541 23.2064 52.2131 23.1451 52.2112 23.1448C50.6244 22.9311 49.7193 24.9818 50.6716 26.3866C51.2854 27.292 52.9571 27.8813 54.6297 27.8816C58.4648 27.882 61.4124 26.2444 62.5088 24.8301C62.5417 24.7877 62.5449 24.7832 62.5966 24.7049C62.6505 24.6237 62.6061 24.5788 62.5389 24.6249C61.643 25.2378 57.6639 27.6714 53.4078 26.9393C53.4078 26.9393 52.8906 26.8542 52.4186 26.6706C52.0434 26.5247 51.2582 26.1634 51.1627 25.3579C54.5975 26.4201 56.7602 25.4158 56.7602 25.4158ZM37.8943 17.253C36.6998 17.4853 35.6469 18.1623 35.0031 19.0974C34.6183 18.7765 33.9014 18.1552 33.7748 17.9131C32.7469 15.9615 34.8966 12.1669 36.3982 10.0239C40.1094 4.72795 45.9217 0.719343 48.6125 1.4467C49.0499 1.5705 50.4986 3.25016 50.4986 3.25016C50.4986 3.25016 47.8091 4.74253 45.3148 6.82272C41.954 9.41052 39.4152 13.1716 37.8943 17.253ZM39.9016 26.209C39.7208 26.2398 39.5364 26.2522 39.3504 26.2476C37.553 26.1994 35.6116 24.5813 35.4186 22.6624C35.2054 20.5413 36.2892 18.909 38.208 18.5219C38.4374 18.4757 38.7147 18.449 39.0136 18.4646C40.0887 18.5235 41.6731 19.3489 42.035 21.6912C42.3556 23.7654 41.8465 25.8773 39.9016 26.209ZM64.2491 22.4531C64.2337 22.3987 64.1334 22.0321 63.9956 21.5904C63.8578 21.1483 63.7151 20.8374 63.7151 20.8374C64.2679 20.0098 64.2777 19.2697 64.2043 18.8504C64.1257 18.3308 63.9094 17.888 63.4735 17.4303C63.0374 16.9726 62.1456 16.5039 60.8924 16.1519C60.7491 16.1117 60.2765 15.982 60.2349 15.9694C60.2316 15.9423 60.2003 14.4192 60.1719 13.7654C60.151 13.2928 60.1105 12.5549 59.8815 11.8281C59.6087 10.8443 59.1332 9.9835 58.5399 9.43274C60.1774 7.73534 61.1997 5.86537 61.1973 4.26118C61.1925 1.17616 57.4038 0.242762 52.7348 2.17607C52.7299 2.17808 51.7527 2.59249 51.7456 2.59595C51.7411 2.59177 49.9571 0.841269 49.9303 0.817894C44.607 -3.82529 27.9631 14.6747 33.2845 19.1679L34.4474 20.1531C34.1458 20.9345 34.0272 21.8298 34.1241 22.7927C34.2483 24.0292 34.8862 25.2146 35.92 26.1303C36.9015 27 38.1918 27.5503 39.4441 27.5492C41.5148 32.3213 46.2462 35.2487 51.7939 35.4135C57.7448 35.5902 62.7401 32.7979 64.8334 27.782C64.9703 27.4299 65.5513 25.8438 65.5513 24.4436C65.5513 23.0364 64.7557 22.4531 64.2491 22.4531Z" fill="#73A4A0"/>
</svg>
