<svg width="195" height="36" viewBox="0 0 195 36" fill="none" xmlns="http://www.w3.org/2000/svg">
<g clip-path="url(#clip0_52_2628)">
<path fill-rule="evenodd" clip-rule="evenodd" d="M46.0218 6.08044L41.1626 18.775L36.2746 6.08044H27.9171V29.0877H33.9316V13.8775L39.8374 29.0877H42.4913L48.3647 13.8775V29.0877H54.3792V6.08044H46.0218Z" fill="#73A4A0"/>
<path fill-rule="evenodd" clip-rule="evenodd" d="M66.5764 24.812V23.3254C66.0192 22.5325 64.7585 22.1521 63.5759 22.1521C62.1759 22.1521 60.8813 22.7756 60.8813 24.0846C60.8813 25.3936 62.1759 26.0171 63.5759 26.0171C64.7585 26.0171 66.0192 25.6031 66.5764 24.8103V24.812ZM66.5764 29.086V27.43C65.5282 28.6686 63.5029 29.5 61.3333 29.5C58.7457 29.5 55.5328 27.7384 55.5328 24.0125C55.5328 19.9799 58.7439 18.6374 61.3333 18.6374C63.5759 18.6374 65.5672 19.3582 66.5764 20.6017V18.9458C66.5764 17.4977 65.3226 16.4971 63.1512 16.4971C61.4726 16.4971 59.7939 17.1508 58.433 18.2905L56.4418 14.5981C58.6115 12.7712 61.5117 12.012 64.0941 12.012C68.1496 12.012 71.9657 13.4986 71.9657 18.6709V29.0877H66.5764V29.086Z" fill="#73A4A0"/>
<path fill-rule="evenodd" clip-rule="evenodd" d="M72.695 26.9138L74.9327 23.1225C76.1934 24.222 78.8811 25.3618 80.8792 25.3618C82.4848 25.3618 83.1491 24.9093 83.1491 24.1885C83.1491 22.1202 73.3271 24.2556 73.3271 17.4977C73.3271 14.5646 75.9147 12.012 80.5598 12.012C83.4277 12.012 85.8029 12.9087 87.6225 14.2177L85.565 17.9837C84.5491 17.0133 82.6258 16.1501 80.6005 16.1501C79.3399 16.1501 78.5022 16.6345 78.5022 17.2899C78.5022 19.1168 88.2851 17.2228 88.2851 24.0528C88.2851 27.2205 85.458 29.5 80.6328 29.5C77.5933 29.5 74.4825 28.4977 72.695 26.9138Z" fill="#73A4A0"/>
<path fill-rule="evenodd" clip-rule="evenodd" d="M100.767 29.0877V19.3884C100.767 17.3603 99.6843 16.705 97.965 16.705C96.3934 16.705 95.3451 17.5632 94.7199 18.3224V29.086H89.3306V6.08044H94.7199V14.4607C95.7291 13.2875 97.7271 12.0137 100.554 12.0137C104.404 12.0137 106.149 14.1523 106.149 17.2229V29.0877H100.767Z" fill="#73A4A0"/>
<path fill-rule="evenodd" clip-rule="evenodd" d="M118.284 24.812V23.3254C117.725 22.5325 116.466 22.1521 115.277 22.1521C113.877 22.1521 112.582 22.7756 112.582 24.0846C112.582 25.3936 113.877 26.0171 115.277 26.0171C116.466 26.0171 117.725 25.6031 118.284 24.8103V24.812ZM118.284 29.086V27.43C117.234 28.6686 115.204 29.5 113.041 29.5C110.452 29.5 107.234 27.7384 107.234 24.0125C107.234 19.9799 110.452 18.6374 113.041 18.6374C115.277 18.6374 117.268 19.3582 118.284 20.6017V18.9458C118.284 17.4977 117.022 16.4971 114.859 16.4971C113.18 16.4971 111.5 17.1508 110.134 18.2905L108.143 14.5981C110.312 12.7712 113.213 12.012 115.802 12.012C119.856 12.012 123.665 13.4986 123.665 18.6709V29.0877H118.284V29.086Z" fill="#73A4A0"/>
<path fill-rule="evenodd" clip-rule="evenodd" d="M134.01 24.8121C136.14 24.8121 137.753 23.2533 137.753 20.7393C137.753 18.2587 136.14 16.6999 134.01 16.6999C132.854 16.6999 131.461 17.3218 130.792 18.2184V23.3254C131.461 24.2221 132.856 24.8121 134.01 24.8121ZM125.409 29.086V6.08044H130.792V14.3937C131.99 12.8718 133.842 11.9912 135.795 12.0137C140.022 12.0137 143.242 15.2921 143.242 20.7393C143.242 26.3959 139.956 29.5 135.795 29.5C133.904 29.5 132.192 28.7408 130.792 27.1552V29.0877H125.409V29.086Z" fill="#73A4A0"/>
<path fill-rule="evenodd" clip-rule="evenodd" d="M144.326 6.08044H149.708V29.0877H144.326V6.08044Z" fill="#73A4A0"/>
<path fill-rule="evenodd" clip-rule="evenodd" d="M159.743 16.2876C157.398 16.2876 156.491 17.6687 156.277 18.8737H163.239C163.095 17.7005 162.225 16.2876 159.743 16.2876ZM150.789 20.7392C150.789 15.9138 154.459 12.012 159.743 12.012C164.74 12.012 168.377 15.6322 168.377 21.289V22.5008H156.351C156.735 23.9806 158.135 25.2243 160.578 25.2243C161.768 25.2243 163.725 24.7064 164.708 23.8097L167.043 27.2926C165.369 28.7725 162.57 29.5 159.987 29.5C154.778 29.5 150.789 26.1545 150.789 20.7392Z" fill="#73A4A0"/>
</g>
<defs>
<clipPath id="clip0_52_2628">
<rect width="141.69" height="24" fill="white" transform="translate(26.8101 6)"/>
</clipPath>
</defs>
</svg>
