<svg width="195" height="36" viewBox="0 0 195 36" fill="none" xmlns="http://www.w3.org/2000/svg">
<g clip-path="url(#clip0_52_2601)">
<mask id="mask0_52_2601" style="mask-type:luminance" maskUnits="userSpaceOnUse" x="26" y="2" width="142" height="32">
<path d="M167.496 2.78723H26.3472V33.6677H167.496V2.78723Z" fill="white"/>
</mask>
<g mask="url(#mask0_52_2601)">
<path d="M167.475 17.1666V14.6828H164.392V10.8228L164.288 10.8559L161.393 11.7382H161.338V14.6608H156.769V13.0286C156.769 12.2787 156.945 11.6941 157.276 11.3081C157.606 10.9221 158.092 10.7291 158.688 10.7291C159.128 10.7291 159.592 10.8394 160.032 11.0379L160.143 11.082V8.47812L160.099 8.45607C159.679 8.30717 159.106 8.22997 158.401 8.22997C157.508 8.22997 156.692 8.42849 155.975 8.81891C155.258 9.19389 154.696 9.75635 154.309 10.4622C153.912 11.168 153.714 11.9842 153.714 12.8775V14.6641H151.575V17.1456H153.725V27.6008H156.802V17.1456H161.375V23.7849C161.375 26.5201 162.66 27.9096 165.212 27.9096C165.631 27.9096 166.072 27.8567 166.514 27.7663C166.971 27.667 167.285 27.5678 167.461 27.4685L167.506 27.4464V24.9429L167.381 25.0268C167.216 25.137 167.006 25.233 166.764 25.2991C166.521 25.3653 166.311 25.4094 166.155 25.4094C165.56 25.4094 165.118 25.255 164.847 24.9385C164.567 24.6242 164.428 24.0672 164.428 23.2842V17.1743H167.493L167.487 17.1588L167.475 17.1666ZM144.659 25.416C143.542 25.416 142.661 25.0444 142.035 24.3132C141.414 23.5798 141.098 22.5331 141.098 21.2031C141.098 19.8311 141.414 18.7547 142.039 18.0091C142.661 17.268 143.534 16.8908 144.637 16.8908C145.706 16.8908 146.544 17.2504 147.161 17.9607C147.78 18.6753 148.088 19.7407 148.088 21.1281C148.088 22.5331 147.801 23.6128 147.228 24.3341C146.654 25.051 145.794 25.415 144.67 25.415L144.659 25.416ZM144.801 14.3719C142.674 14.3719 140.977 14.9961 139.769 16.2291C138.567 17.4643 137.952 19.1694 137.952 21.3023C137.952 23.3316 138.547 24.9584 139.73 26.144C140.91 27.3351 142.517 27.9526 144.502 27.9526C146.566 27.9526 148.229 27.313 149.433 26.0723C150.646 24.8238 151.248 23.132 151.248 21.0508C151.248 18.9929 150.675 17.3496 149.539 16.1762C148.403 14.9917 146.811 14.3939 144.798 14.3939L144.801 14.3719ZM132.976 14.3939C131.52 14.3939 130.325 14.7645 129.403 15.4968C128.485 16.2335 128.014 17.1953 128.014 18.3643C128.014 18.9753 128.117 19.5113 128.318 19.9745C128.516 20.4311 128.825 20.8348 129.238 21.1744C129.646 21.5053 130.274 21.8582 131.113 22.2199C131.818 22.5067 132.337 22.7493 132.672 22.9479C133.002 23.132 133.236 23.3228 133.355 23.507C133.488 23.6834 133.554 23.9371 133.554 24.2349C133.554 25.1105 132.905 25.5319 131.569 25.5319C131.07 25.5319 130.504 25.4282 129.884 25.2231C129.259 25.0201 128.678 24.7268 128.156 24.3496L128.023 24.2614V27.2171L128.068 27.2391C128.509 27.4377 129.053 27.6141 129.7 27.7464C130.345 27.8898 130.935 27.956 131.442 27.956C133.019 27.956 134.288 27.581 135.214 26.8487C136.139 26.1076 136.614 25.1172 136.614 23.9106C136.614 23.0393 136.361 22.2894 135.859 21.6884C135.362 21.0861 134.502 20.537 133.297 20.0517C132.345 19.6657 131.731 19.3458 131.466 19.1032C131.224 18.865 131.11 18.5297 131.11 18.1062C131.11 17.7312 131.265 17.429 131.578 17.1864C131.895 16.9382 132.335 16.8148 132.886 16.8148C133.399 16.8148 133.923 16.8919 134.452 17.0518C134.971 17.2151 135.429 17.4269 135.809 17.6871L135.938 17.7754V14.952L135.894 14.9299C135.535 14.7755 135.07 14.6465 134.504 14.5439C133.942 14.4369 133.431 14.3895 132.988 14.3895L132.976 14.3939ZM119.976 25.4293C118.862 25.4293 117.98 25.0609 117.363 24.3264C116.734 23.5985 116.42 22.5508 116.42 21.2163C116.42 19.8487 116.735 18.768 117.361 18.0257C117.979 17.2846 118.855 16.9074 119.953 16.9074C121.022 16.9074 121.871 17.2669 122.484 17.9771C123.093 18.6941 123.41 19.7594 123.41 21.1468C123.41 22.5497 123.112 23.6283 122.538 24.3507C121.977 25.0675 121.116 25.4315 119.98 25.4315L119.976 25.4293ZM120.135 14.3918C117.996 14.3918 116.297 15.0137 115.095 16.2468C113.886 17.482 113.276 19.1859 113.276 21.32C113.276 23.3492 113.871 24.9749 115.044 26.1616C116.226 27.3527 117.829 27.9703 119.813 27.9703C121.886 27.9703 123.54 27.3306 124.753 26.0844C125.96 24.8338 126.572 23.1419 126.572 21.0608C126.572 19.0017 125.999 17.3585 124.874 16.1861C123.738 15.0005 122.144 14.4028 120.133 14.4028L120.135 14.3918ZM108.622 16.9482V14.6983H105.579V27.635H108.622V21.0178C108.622 19.8929 108.876 18.9664 109.38 18.2662C109.876 17.5691 110.538 17.2294 111.343 17.2294C111.618 17.2294 111.927 17.2736 112.267 17.3617C112.598 17.45 112.836 17.5382 112.973 17.6485L113.105 17.7368V14.6708L113.056 14.6487C112.77 14.5208 112.373 14.4591 111.865 14.4591C111.105 14.4591 110.421 14.7061 109.834 15.1869C109.316 15.6148 108.944 16.1971 108.66 16.9251H108.605L108.632 16.9471L108.622 16.9482ZM100.109 14.3895C98.7088 14.3895 97.4627 14.6818 96.4041 15.2718C95.3368 15.8673 94.5185 16.7056 93.9561 17.7864C93.4047 18.8561 93.118 20.1079 93.118 21.503C93.118 22.7273 93.396 23.8456 93.934 24.8359C94.4788 25.8285 95.2463 26.6005 96.2167 27.1409C97.1804 27.6737 98.3009 27.946 99.5403 27.946C100.987 27.946 102.22 27.6593 103.212 27.0858L103.257 27.0637V24.2713L103.124 24.3628C102.675 24.6936 102.176 24.9528 101.635 25.1404C101.097 25.3278 100.608 25.4227 100.18 25.4227C98.9824 25.4227 98.0252 25.0477 97.3283 24.3143C96.6225 23.5643 96.2697 22.5276 96.2697 21.2263C96.2697 19.9028 96.6445 18.844 97.3679 18.072C98.0957 17.278 99.0529 16.8809 100.224 16.8809C101.216 16.8809 102.195 17.2228 103.116 17.8845L103.249 17.9727V15.0392L103.212 15.017C102.865 14.8186 102.393 14.6641 101.801 14.5384C101.221 14.4171 100.65 14.3575 100.105 14.3575L100.109 14.3895ZM91.0295 14.6664H87.9903V27.6141H91.0339V14.6664H91.0295ZM89.5298 9.16301C89.0291 9.16301 88.5925 9.33285 88.2329 9.67033C87.8735 10.01 87.6904 10.4357 87.6904 10.9386C87.6904 11.435 87.8746 11.854 88.2308 12.1848C88.5836 12.5157 89.0247 12.6789 89.532 12.6789C90.0392 12.6789 90.4803 12.5136 90.8387 12.1827C91.2004 11.8518 91.3835 11.4327 91.3835 10.9364C91.3835 10.4512 91.207 10.0321 90.8541 9.67915C90.5013 9.34829 90.0601 9.17183 89.5308 9.17183L89.5298 9.16301ZM81.9331 13.7267V27.6229H85.0428V9.581H80.7421L75.2913 22.9897L69.9872 9.57878H65.5168V27.635H68.439V13.7444H68.5383L74.1401 27.6384H76.3401L81.8536 13.7454H81.9585L81.9419 13.7388L81.9331 13.7267ZM42.1577 19.3404H56.4711V33.6678H42.1356L42.1555 19.3502L42.1577 19.3404ZM26.3479 19.3491H40.6591V33.6678H26.3435L26.3479 19.3502V19.3491ZM42.1589 3.53724H56.4722V17.8525H42.15L42.1589 3.53284V3.53724ZM26.3479 3.53504H40.6591V17.8525H26.3435L26.3479 3.53284V3.53504Z" fill="#73A4A0"/>
</g>
</g>
<defs>
<clipPath id="clip0_52_2601">
<rect width="142.09" height="32" fill="white" transform="translate(26.27 2)"/>
</clipPath>
</defs>
</svg>
