<svg width="195" height="36" viewBox="0 0 195 36" fill="none" xmlns="http://www.w3.org/2000/svg">
<g clip-path="url(#clip0_52_2598)">
<path d="M87.0727 16.4797C90.7623 17.3766 92.2665 18.7693 92.2665 21.2873C92.2665 24.2666 89.9902 26.1918 86.4672 26.1918C83.977 26.1918 81.6685 25.3072 79.7922 23.632C79.7537 23.5977 79.7302 23.5496 79.7267 23.4981C79.7231 23.4466 79.7398 23.3957 79.7733 23.3564L81.4312 21.3842C81.4481 21.3641 81.4689 21.3475 81.4923 21.3354C81.5157 21.3234 81.5413 21.3161 81.5674 21.314C81.5937 21.3119 81.6201 21.3152 81.6451 21.3234C81.6701 21.3316 81.6932 21.3447 81.7131 21.362C83.3258 22.758 84.7676 23.353 86.5346 23.353C88.1262 23.353 89.115 22.6639 89.115 21.5564C89.115 20.5564 88.6259 19.9977 85.728 19.3303C82.3242 18.5069 80.3538 17.4418 80.3538 14.4307C80.3538 11.6231 82.6378 9.66214 85.9068 9.66214C88.1296 9.66214 90.033 10.3206 91.7227 11.676C91.8041 11.7417 91.8208 11.8599 91.76 11.9456L90.281 14.0291C90.2655 14.0506 90.246 14.0686 90.2235 14.0825C90.201 14.0963 90.176 14.1056 90.1498 14.1098C90.1238 14.1138 90.0971 14.1128 90.0714 14.1066C90.0457 14.1005 90.0216 14.0892 90.0003 14.0737C88.5808 13.0152 87.227 12.5016 85.8611 12.5016C84.4528 12.5016 83.5057 13.1784 83.5057 14.1839C83.5057 15.248 84.0461 15.755 87.0733 16.478L87.0727 16.4797ZM100.237 13.4937C98.7102 13.4937 97.4578 14.0954 96.4245 15.3265V13.9394C96.4245 13.8869 96.4036 13.8364 96.3664 13.7992C96.3292 13.762 96.2788 13.7411 96.2261 13.7411H93.5154C93.4628 13.7411 93.4124 13.762 93.3751 13.7992C93.338 13.8364 93.3171 13.8869 93.3171 13.9394V29.3538C93.3171 29.4625 93.4062 29.5516 93.5154 29.5516H96.2267C96.3365 29.5516 96.4256 29.4625 96.4256 29.3534V24.4872C97.4584 25.646 98.7113 26.213 100.238 26.213C103.077 26.213 105.948 24.0293 105.948 19.8534C105.948 15.6775 103.075 13.4937 100.237 13.4937ZM102.794 19.854C102.794 21.9798 101.484 23.4638 99.6093 23.4638C97.7543 23.4638 96.356 21.9124 96.356 19.854C96.356 17.7955 97.7543 16.2441 99.6093 16.2441C101.454 16.2441 102.794 17.7621 102.794 19.854ZM113.31 13.4937C109.655 13.4937 106.793 16.307 106.793 19.9002C106.793 23.4533 109.635 26.237 113.264 26.237C116.931 26.237 119.802 23.4326 119.802 19.854C119.802 16.2875 116.951 13.4937 113.31 13.4937ZM113.309 23.4856C111.365 23.4856 109.9 21.9241 109.9 19.8534C109.9 17.7743 111.315 16.2658 113.265 16.2658C115.22 16.2658 116.696 17.8273 116.696 19.8991C116.696 21.977 115.271 23.4856 113.309 23.4856ZM127.606 13.7411C127.716 13.7411 127.804 13.8302 127.804 13.9394V16.2697C127.804 16.2957 127.799 16.3215 127.789 16.3456C127.78 16.3696 127.765 16.3915 127.747 16.4099C127.728 16.4284 127.706 16.4429 127.682 16.4529C127.658 16.4628 127.633 16.468 127.607 16.468H124.623V22.0728C124.623 22.9586 125.012 23.353 125.882 23.353C126.436 23.356 126.982 23.224 127.473 22.9686C127.504 22.9536 127.537 22.9465 127.571 22.9481C127.605 22.9497 127.638 22.9598 127.667 22.9777C127.696 22.9955 127.72 23.0204 127.736 23.05C127.753 23.0797 127.761 23.113 127.761 23.1468V25.3652C127.761 25.436 127.723 25.5027 127.661 25.5379C126.901 25.9684 126.094 26.169 125.121 26.169C122.729 26.169 121.517 24.934 121.517 22.4968V16.4685H120.213C120.187 16.4685 120.161 16.4633 120.137 16.4533C120.113 16.4433 120.092 16.4286 120.073 16.4103C120.055 16.3918 120.04 16.37 120.031 16.3459C120.021 16.322 120.016 16.2962 120.016 16.2702V13.9394C120.016 13.8302 120.104 13.7411 120.213 13.7411H121.517V10.6905C121.517 10.5813 121.606 10.4922 121.716 10.4922H124.427C124.537 10.4922 124.625 10.5813 124.625 10.6905V13.7411H127.608H127.606ZM142.634 13.7528C142.715 13.7528 142.789 13.8029 142.818 13.8809L145.985 22.1446L148.877 13.8853C148.891 13.8464 148.916 13.8126 148.95 13.7886C148.984 13.7647 149.024 13.7518 149.065 13.7517H151.887C151.92 13.7517 151.952 13.7595 151.98 13.7747C152.009 13.7898 152.033 13.8117 152.051 13.8385C152.07 13.8653 152.081 13.8961 152.084 13.9283C152.088 13.9605 152.083 13.993 152.071 14.023L147.368 26.1785C146.393 28.687 145.285 29.6196 143.284 29.6196C142.213 29.6196 141.347 29.3979 140.387 28.8786C140.343 28.8549 140.31 28.815 140.294 28.7673C140.278 28.7197 140.282 28.6679 140.302 28.6224L141.221 26.6058C141.233 26.5809 141.249 26.5586 141.27 26.5403C141.29 26.5219 141.313 26.5078 141.339 26.4989C141.364 26.4905 141.392 26.4876 141.419 26.4901C141.447 26.4927 141.473 26.5008 141.497 26.5138C142.011 26.7952 142.514 26.9373 142.993 26.9373C143.583 26.9373 144.016 26.7434 144.456 25.7663L140.579 16.4685H138.047V25.769C138.047 25.8788 137.958 25.9679 137.849 25.9679H135.138C135.111 25.9679 135.085 25.9628 135.061 25.9528C135.037 25.9428 135.015 25.9281 134.996 25.9096C134.978 25.8911 134.964 25.8693 134.954 25.8451C134.944 25.8209 134.939 25.7952 134.939 25.769V16.4685H133.636C133.584 16.4681 133.534 16.447 133.496 16.4099C133.459 16.3727 133.438 16.3223 133.438 16.2697V13.9283C133.438 13.8186 133.527 13.7294 133.636 13.7294H134.939V13.1556C134.939 10.4894 136.262 9.07888 138.767 9.07888C139.796 9.07888 140.482 9.24321 141.02 9.40198C141.105 9.42817 141.161 9.50564 141.161 9.59251V11.8765C141.162 11.9082 141.154 11.9393 141.14 11.9676C141.126 11.9958 141.105 12.0202 141.079 12.0388C141.055 12.0574 141.024 12.0695 140.993 12.0742C140.962 12.079 140.93 12.0761 140.9 12.066C140.391 11.8966 139.938 11.7841 139.373 11.7841C138.426 11.7841 138.002 12.276 138.002 13.3784V13.7528H142.633H142.634ZM131.975 13.7411C132.084 13.7411 132.174 13.8302 132.174 13.9394V25.7685C132.174 25.8777 132.084 25.9668 131.975 25.9668H129.263C129.211 25.9668 129.16 25.9459 129.123 25.9088C129.086 25.8715 129.065 25.8211 129.064 25.7685V13.9394C129.064 13.8302 129.154 13.7411 129.263 13.7411H131.974H131.975ZM130.633 8.35523C131.149 8.35523 131.643 8.56006 132.008 8.92467C132.373 9.28929 132.577 9.78378 132.577 10.2994C132.577 10.815 132.373 11.3096 132.008 11.6742C131.643 12.0388 131.149 12.2436 130.633 12.2436C130.118 12.2436 129.623 12.0388 129.258 11.6742C128.894 11.3096 128.689 10.815 128.689 10.2994C128.689 9.78378 128.894 9.28929 129.258 8.92467C129.623 8.56006 130.118 8.35523 130.633 8.35523ZM154.386 17.5437C154.135 17.5447 153.887 17.496 153.655 17.4004C153.423 17.3049 153.212 17.1644 153.035 16.987C152.857 16.8097 152.717 16.599 152.621 16.3671C152.526 16.1351 152.477 15.8866 152.478 15.6357C152.478 15.3839 152.528 15.1345 152.624 14.9018C152.72 14.6692 152.862 14.4577 153.04 14.2797C153.218 14.1016 153.43 13.9604 153.663 13.864C153.895 13.7677 154.144 13.7181 154.396 13.7182C154.647 13.7172 154.895 13.7657 155.127 13.8611C155.359 13.9566 155.57 14.097 155.748 14.2742C155.925 14.4516 156.065 14.6622 156.161 14.8941C156.256 15.1259 156.305 15.3744 156.304 15.6251C156.304 15.8771 156.254 16.1266 156.158 16.3594C156.062 16.5922 155.921 16.8038 155.743 16.982C155.565 17.1602 155.353 17.3015 155.121 17.398C154.887 17.4945 154.638 17.5436 154.386 17.5437ZM154.396 13.9083C153.419 13.9083 152.679 14.6854 152.679 15.6363C152.679 16.5872 153.413 17.3538 154.386 17.3538C155.363 17.3538 156.104 16.5772 156.104 15.6257C156.104 14.6748 155.368 13.9083 154.396 13.9083ZM154.819 15.8218L155.358 16.5772H154.904L154.419 15.8842H154.001V16.5772H153.62V14.5745H154.513C154.977 14.5745 155.284 14.813 155.284 15.2135C155.284 15.5421 155.095 15.7427 154.819 15.8206V15.8218ZM154.496 14.9182H154V15.551H154.496C154.744 15.551 154.891 15.4296 154.891 15.2335C154.891 15.0274 154.744 14.9182 154.496 14.9182ZM56.8973 0.289795C47.2119 0.289795 39.3604 8.25049 39.3604 17.9365C39.3598 27.0375 46.291 34.3843 55.1631 35.4985H58.6315C67.5036 34.3843 74.4348 27.0375 74.4348 17.9359C74.4348 8.25049 66.5822 0.289795 56.8973 0.289795ZM64.9399 25.5847C64.8652 25.7074 64.767 25.8141 64.651 25.8987C64.535 25.9834 64.4034 26.0444 64.2638 26.0781C64.1241 26.1119 63.9793 26.1177 63.8374 26.0954C63.6954 26.073 63.5594 26.0229 63.4369 25.9479C59.3184 23.431 54.1353 22.8627 48.0308 24.2571C47.8909 24.2893 47.7461 24.2936 47.6045 24.2697C47.463 24.2458 47.3276 24.1943 47.206 24.118C47.0844 24.0418 46.979 23.9422 46.8959 23.8252C46.8128 23.7082 46.7536 23.576 46.7216 23.4359C46.6895 23.296 46.6853 23.1511 46.7092 23.0096C46.7332 22.8679 46.7848 22.7325 46.8612 22.6108C46.9376 22.4893 47.0372 22.3839 47.1543 22.3009C47.2715 22.2178 47.4039 22.1587 47.5439 22.1268C54.2244 20.6004 59.9545 21.2578 64.5772 24.0822C64.8244 24.2337 65.0013 24.477 65.0692 24.7588C65.1371 25.0406 65.091 25.3372 64.9399 25.5847ZM67.0858 20.8094C66.896 21.1182 66.5914 21.3391 66.2388 21.4235C65.8863 21.5079 65.5147 21.4489 65.2056 21.2595C60.4927 18.3626 53.3064 17.5231 47.73 19.2161C47.3829 19.3208 47.0085 19.2838 46.6887 19.1131C46.3689 18.9424 46.1297 18.6519 46.0236 18.3053C45.8064 17.5811 46.213 16.8195 46.9356 16.6006C53.3058 14.6676 61.2236 15.6034 66.6367 18.9292C66.9456 19.1191 67.1664 19.4237 67.2507 19.7762C67.335 20.1288 67.2753 20.5004 67.0858 20.8094ZM67.2707 15.8368C61.6175 12.4799 52.293 12.1712 46.8966 13.8091C46.4802 13.9353 46.0308 13.8908 45.6472 13.6856C45.2635 13.4805 44.9771 13.1313 44.851 12.7149C44.7248 12.2986 44.7692 11.8491 44.9744 11.4656C45.1796 11.0819 45.5287 10.7955 45.9451 10.6693C52.1398 8.78919 62.4381 9.15241 68.9458 13.0146C69.1311 13.1245 69.293 13.2699 69.4222 13.4423C69.5513 13.6148 69.6452 13.811 69.6985 14.0197C69.7517 14.2285 69.7634 14.4456 69.7327 14.6588C69.702 14.8721 69.6296 15.0773 69.5196 15.2625C69.4098 15.448 69.2645 15.6099 69.092 15.7391C68.9195 15.8683 68.7233 15.9623 68.5144 16.0156C68.3056 16.0688 68.0883 16.0805 67.875 16.0497C67.6617 16.0189 67.456 15.947 67.2707 15.8368Z" fill="#73A4A0"/>
</g>
<defs>
<clipPath id="clip0_52_2598">
<rect width="117.469" height="36" fill="white" transform="translate(38.92)"/>
</clipPath>
</defs>
</svg>
