<svg width="18" height="24" viewBox="0 0 18 24" fill="none" xmlns="http://www.w3.org/2000/svg">
<path fillRule="evenodd" clipRule="evenodd" d="M17.6471 8.52928C17.5652 7.90694 17.3274 7.31533 16.956 6.80925C16.4958 6.34533 15.8715 6.08107 15.218 6.07359C12.7941 5.89844 9.15082 5.89844 9.15082 5.89844C9.15082 5.89844 5.50928 5.89844 3.08189 6.07359C2.42862 6.08093 1.80454 6.34522 1.34478 6.80925C0.971699 7.31484 0.733537 7.90708 0.652739 8.53016C0.544472 9.4623 0.485989 10.3995 0.477539 11.3379V12.6516C0.486299 13.5895 0.544115 14.5275 0.652739 15.4593C0.735083 16.0829 0.970727 16.6767 1.33952 17.1864C1.86863 17.6558 2.5484 17.9194 3.25534 17.929C4.64204 18.0604 9.15169 18.1042 9.15169 18.1042C9.15169 18.1042 12.7967 18.1042 15.2206 17.929C15.8743 17.9214 16.4989 17.6572 16.9595 17.1934C17.3301 16.6867 17.5672 16.0949 17.6489 15.4725C17.7575 14.5406 17.8153 13.6027 17.8241 12.6647V11.337C17.8142 10.3987 17.7551 9.46146 17.6471 8.52928ZM7.40495 14.2683V9.34638L12.1353 11.8152L7.40495 14.2674V14.2683Z" fill="white"/>
</svg>
